# xmcd
#
# Track frame offsets:
# 150
# 15549
# 29496
# 41819
# 56189
# 68130
# 82134
# 95981
# 112187
# 130628
#
# Disc length: 1874 seconds
#
# Revision: 0
# Processed by: cddbd v1.5.2PL0 Copyright (c) Steve Scherf et al.
# Submitted via: Axialis_AX_CDPlayer 2.6
#
DISCID=9207500a
DTITLE=Leah Durelle - I'm Coming Back As A Cowboy
DYEAR=1900
DGENRE=
TTITLE0=Suspicious Minds
TTITLE1=Shape Up Heart
TTITLE2=Long Gone Lonesome Blues
TTITLE3=When You Love Somebody
TTITLE4=Before The Next Teardrop Falls
TTITLE5=I'm Not Sorry
TTITLE6=Heartaches By The Number
TTITLE7=I'm Coming Back As A Cowboy
TTITLE8=Unchained Melody
TTITLE9=If I Could Only Learn To Yodel
EXTD=www.leahdurelle.com
EXTT0=
EXTT1=
EXTT2=
EXTT3=
EXTT4=
EXTT5=
EXTT6=
EXTT7=
EXTT8=
EXTT9=
PLAYORDER=
